# xmcd
# 
# Track frame offsets:
#     150
#     25051
#     45451
#     69847
#     92905
#     116702
#     139151
#     159792
#     187556
#     211504
#     245682
#     271941
#     301739
# 
# Disc length: 4369
# 
# Revision: 1
# Processed by: cddbd v1.5.2PL0 Copyright (c) Steve Scherf et al.
# Submitted via: fre:ac v1.0.17
# 
DISCID=9a110f0d
DTITLE=Jimmy Dludlu - Afrocentric
DYEAR=2002
DGENRE=Jazz
TTITLE0=Africa Africa
TTITLE1=Afrocentric
TTITLE2=I wish I knew
TTITLE3=River of lost dreams
TTITLE4=Inyoni iyaphapha
TTITLE5=Common dialogue
TTITLE6=Walk of life
TTITLE7=Library in flames
TTITLE8=Simone
TTITLE9=Peaceful moment
TTITLE10=Basil goes to church
TTITLE11=Mdantsane
TTITLE12=The wood that sings of sorrow
EXTD=2002
EXTT0=
EXTT1=
EXTT2=
EXTT3=
EXTT4=
EXTT5=
EXTT6=
EXTT7=
EXTT8=
EXTT9=
EXTT10=
EXTT11=
EXTT12=
PLAYORDER=
